<?xml version="1.0" encoding="UTF-8"?>
<svg xmlns="http://www.w3.org/2000/svg" 
     viewBox="-40 -40 5116 1210"
     width="800"
     height="189">
  <g stroke="white" stroke-width="80" stroke-linejoin="round" stroke-linecap="round" paint-order="stroke fill">
  <g fill="#ED192E">
    <path d="M402.0 807.0 C388.7 808.9 339.4 770.4 316.0 760.0 C292.6 749.6 226.1 725.4 201.0 718.0 C175.9 710.6 111.2 706.0 101.0 697.0 C90.8 688.0 109.9 657.3 114.0 641.0 C118.1 624.7 124.7 564.8 136.0 557.0 C147.3 549.2 200.6 579.8 211.0 574.0 C221.4 568.2 223.2 515.3 225.0 507.0 C226.8 498.7 243.4 504.9 226.0 503.0 C208.6 501.1 93.0 501.5 76.0 491.0 C59.0 480.5 79.5 429.1 80.0 413.0 C80.5 396.9 61.3 358.2 80.0 353.0 C98.7 347.8 220.6 377.6 240.0 368.0 C259.4 358.4 264.4 286.3 246.0 271.0 C227.6 255.7 99.2 249.1 82.0 237.0 C64.8 224.9 95.5 181.9 99.0 167.0 C102.5 152.1 95.0 113.0 112.0 109.0 C129.0 105.0 230.7 136.7 245.0 133.0 C259.4 129.3 239.0 84.1 235.0 77.0 C231.0 69.9 217.9 72.2 211.0 72.0 C204.1 71.8 180.9 82.7 176.0 75.0 C171.1 67.3 171.3 18.8 169.0 6.0 C166.7 -6.8 151.0 -28.4 156.0 -35.0 C161.0 -41.6 198.3 -47.6 212.0 -51.0 C225.7 -54.4 258.3 -64.6 273.0 -64.0 C287.7 -63.4 325.4 -53.6 338.0 -46.0 C350.6 -38.4 373.8 -20.9 381.0 1.0 C388.2 22.9 397.8 123.1 400.0 142.0 C402.2 160.9 386.4 157.8 400.0 163.0 C413.6 168.2 504.9 175.4 517.0 187.0 C529.1 198.6 507.6 245.8 504.0 262.0 C500.4 278.2 498.4 321.0 486.0 326.0 C473.6 331.0 408.3 306.1 398.0 305.0 C387.7 303.9 398.8 308.1 398.0 317.0 C397.2 325.9 373.4 372.0 391.0 381.0 C408.6 390.0 529.4 400.6 549.0 394.0 C568.6 387.4 553.5 349.3 559.0 324.0 C564.5 298.7 595.6 197.5 596.0 177.0 C596.4 156.5 580.9 161.3 562.0 148.0 C543.1 134.7 443.0 81.0 434.0 63.0 C425.0 45.0 475.3 7.5 485.0 -6.0 C494.7 -19.5 500.0 -55.7 517.0 -53.0 C534.0 -50.3 613.1 5.2 631.0 17.0 C648.9 28.8 663.0 48.2 670.0 48.0 C677.0 47.8 676.8 28.2 691.0 15.0 C705.2 1.8 769.2 -54.9 792.0 -65.0 C814.8 -75.2 868.4 -77.8 886.0 -72.0 C903.6 -66.2 933.1 -28.9 943.0 -15.0 C952.9 -1.1 967.0 31.1 971.0 47.0 C975.0 62.9 983.1 109.0 977.0 121.0 C970.9 133.0 934.8 140.2 919.0 150.0 C903.2 159.8 851.3 206.5 842.0 205.0 C832.7 203.5 840.5 148.8 839.0 137.0 C837.5 125.2 831.1 108.5 829.0 104.0 C826.9 99.5 825.5 95.7 821.0 98.0 C816.5 100.3 795.1 117.9 790.0 124.0 C784.9 130.1 775.8 144.1 777.0 150.0 C778.2 155.9 785.8 156.8 800.0 175.0 C814.2 193.2 894.2 286.4 899.0 306.0 C903.8 325.6 854.4 332.7 841.0 343.0 C827.6 353.3 798.2 398.9 784.0 394.0 C769.8 389.1 728.0 307.2 719.0 301.0 C710.0 294.8 709.3 328.9 707.0 341.0 C704.7 353.1 672.6 395.8 699.0 405.0 C725.4 414.2 906.6 408.8 933.0 420.0 C959.4 431.2 926.5 484.1 925.0 501.0 C923.5 517.9 930.5 558.6 920.0 565.0 C909.5 571.4 837.7 551.3 835.0 556.0 C832.3 560.7 883.6 593.5 897.0 605.0 C910.4 616.5 952.1 640.0 950.0 655.0 C947.9 670.0 896.6 717.3 879.0 734.0 C861.4 750.7 814.6 796.5 799.0 798.0 C783.4 799.5 757.1 757.9 745.0 747.0 C732.9 736.1 695.4 714.7 695.0 705.0 C694.6 695.3 730.8 674.9 742.0 664.0 C753.2 653.1 780.1 624.6 791.0 612.0 C801.9 599.4 847.7 564.3 835.0 556.0 C822.3 547.7 700.8 535.4 682.0 541.0 C663.2 546.6 676.7 574.5 674.0 604.0 C671.3 633.5 661.6 767.9 659.0 794.0 C656.4 820.1 661.2 826.1 652.0 828.0 C642.8 829.9 596.8 812.5 580.0 810.0 C563.2 807.5 514.4 835.8 508.0 807.0 C501.6 778.2 522.4 595.7 525.0 563.0 C527.6 530.3 544.5 532.5 530.0 527.0 C515.5 521.5 419.3 517.5 401.0 516.0 C382.7 514.5 377.7 506.4 373.0 514.0 C368.3 521.6 372.9 572.1 361.0 581.0 C349.1 589.9 281.9 588.8 271.0 590.0 C260.1 591.2 253.9 585.2 268.0 591.0 C282.1 596.8 368.3 629.9 392.0 640.0 C415.7 650.1 466.6 665.9 471.0 678.0 C475.4 690.1 438.1 729.0 430.0 744.0Z" transform="translate(60, 890) scale(1, -1)" />
    <path d="M678.0 401.0 C676.7 393.9 705.4 370.5 702.0 367.0 C698.6 363.5 662.1 371.5 649.0 371.0 C635.9 370.5 596.9 366.0 590.0 363.0 C583.1 360.0 593.1 348.1 590.0 345.0 C586.9 341.9 571.9 337.3 563.0 336.0 C554.1 334.7 525.7 332.5 514.0 334.0 C502.3 335.5 472.0 343.2 463.0 349.0 C454.0 354.8 441.1 372.8 437.0 384.0 C432.9 395.2 437.2 438.4 428.0 445.0 C418.8 451.6 374.4 443.3 358.0 441.0 C341.6 438.7 294.7 430.0 287.0 425.0 C279.3 420.0 298.1 399.8 292.0 398.0 C285.9 396.2 243.8 408.2 235.0 410.0 C226.2 411.8 218.6 410.2 217.0 413.0 C215.4 415.8 220.2 428.8 221.0 434.0 C221.8 439.2 200.7 454.0 224.0 458.0 C247.3 462.0 388.1 466.7 421.0 468.0 C453.9 469.3 502.0 473.3 506.0 469.0 C510.0 464.7 454.9 440.8 455.0 431.0 C455.1 421.2 497.8 394.6 507.0 385.0 C516.2 375.4 525.8 351.8 534.0 349.0 C542.2 346.2 563.9 355.2 577.0 361.0 C590.1 366.8 641.3 390.0 646.0 399.0 C650.7 408.0 624.2 429.7 617.0 438.0 C609.8 446.3 582.7 466.3 584.0 470.0 C585.3 473.7 603.0 470.4 628.0 470.0 C653.0 469.6 778.3 471.7 798.0 467.0 C817.7 462.3 800.0 431.9 797.0 430.0 C794.0 428.1 781.8 451.2 772.0 451.0 C762.2 450.8 724.0 433.8 713.0 428.0Z M411.0 622.0 C405.5 613.8 428.3 593.0 432.0 587.0 C435.7 581.0 447.8 573.0 443.0 571.0 C438.2 569.0 400.7 565.1 391.0 570.0 C381.3 574.9 365.2 605.3 360.0 613.0 C354.8 620.7 340.4 632.1 346.0 636.0 C351.6 639.9 390.6 643.1 408.0 646.0 C425.4 648.9 486.7 659.7 495.0 661.0 C503.3 662.3 488.8 661.5 479.0 657.0Z M213.0 592.0 C208.4 586.2 233.4 570.9 231.0 568.0 C228.6 565.1 200.8 566.9 192.0 567.0 C183.2 567.1 168.7 569.7 156.0 569.0 C143.3 568.3 91.6 568.6 83.0 561.0 C74.4 553.4 83.2 525.2 82.0 504.0 C80.8 482.8 67.4 394.3 73.0 379.0 C78.6 363.7 120.7 373.8 130.0 373.0 C139.3 372.2 151.1 375.3 153.0 372.0 C154.9 368.7 150.2 355.0 146.0 345.0 C141.8 335.0 114.2 295.4 117.0 286.0 C119.8 276.6 154.9 268.4 170.0 264.0 C185.1 259.6 234.1 243.0 246.0 248.0 C257.9 253.0 266.3 291.4 272.0 307.0 C277.7 322.6 291.6 377.2 295.0 382.0 C298.4 386.8 296.6 358.9 301.0 348.0 C305.4 337.1 323.3 299.3 333.0 289.0 C342.7 278.7 368.9 264.8 384.0 260.0 C399.1 255.2 438.1 249.6 462.0 248.0 C485.9 246.4 565.2 245.7 589.0 246.0 C612.8 246.3 652.8 248.6 666.0 251.0 C679.2 253.4 695.4 261.4 702.0 267.0 C708.6 272.6 720.3 291.1 723.0 299.0 C725.7 306.9 724.2 331.6 725.0 335.0 C725.8 338.4 725.2 335.9 730.0 328.0 C734.8 320.1 755.5 273.2 766.0 267.0 C776.5 260.8 805.2 270.2 820.0 275.0 C834.8 279.8 890.1 296.2 893.0 308.0 C895.9 319.8 847.7 368.3 845.0 376.0 C842.3 383.7 857.8 374.6 870.0 374.0 C882.2 373.4 939.4 358.6 950.0 371.0 C960.6 383.4 959.8 460.4 961.0 480.0 C962.2 499.6 965.2 529.0 960.0 539.0 C954.8 549.0 931.5 561.1 916.0 566.0 C900.5 570.9 842.0 579.4 827.0 581.0 C812.0 582.6 785.8 572.0 787.0 580.0 C788.2 588.0 837.9 638.2 837.0 650.0 C836.1 661.8 795.0 675.4 779.0 681.0 C763.0 686.6 701.2 694.4 700.0 698.0 C698.8 701.6 764.9 701.1 769.0 712.0 C773.1 722.9 743.0 777.4 735.0 791.0 C727.0 804.6 719.2 828.5 700.0 829.0 C680.8 829.5 608.5 803.3 570.0 795.0 C531.5 786.7 414.6 765.5 370.0 758.0 C325.4 750.5 207.9 740.3 188.0 731.0 C168.1 721.7 194.9 691.4 199.0 678.0 C203.1 664.6 212.5 622.0 223.0 616.0 C233.5 610.0 283.5 626.8 289.0 627.0 C294.5 627.2 278.9 622.1 270.0 618.0Z M281.0 87.0 C279.8 81.3 305.1 70.2 311.0 67.0 C316.9 63.9 334.1 62.0 332.0 60.0 C329.9 58.0 319.4 55.5 293.0 50.0 C266.6 44.5 124.9 23.7 106.0 13.0 C87.1 2.3 124.3 -30.8 131.0 -42.0 C137.7 -53.2 128.6 -84.0 163.0 -83.0 C197.4 -82.0 384.4 -41.9 426.0 -33.0 C467.6 -24.1 507.9 -9.7 520.0 -7.0 C532.1 -4.3 514.8 -5.6 530.0 -10.0 C545.2 -14.4 615.0 -36.2 650.0 -45.0 C685.0 -53.8 801.0 -85.6 830.0 -85.0 C859.0 -84.4 885.8 -52.6 899.0 -40.0 C912.2 -27.4 943.6 14.7 943.0 23.0 C942.4 31.3 913.4 28.2 894.0 31.0 C874.6 33.8 799.0 43.6 777.0 47.0 C755.0 50.4 705.8 55.1 705.0 60.0 C704.2 64.9 752.9 79.5 770.0 89.0 C787.1 98.5 845.8 127.7 852.0 141.0 C858.2 154.3 830.6 191.9 823.0 203.0 C815.4 214.1 801.4 231.4 787.0 236.0 C772.6 240.6 746.3 241.7 700.0 242.0 C653.7 242.3 431.9 237.8 390.0 239.0 C348.1 240.2 352.3 249.7 341.0 252.0 C329.7 254.3 304.6 262.6 293.0 259.0 C281.4 255.4 257.1 230.3 242.0 221.0 C226.9 211.7 183.2 188.0 164.0 179.0 C144.8 170.0 84.1 152.4 77.0 144.0 C69.9 135.6 93.4 116.8 103.0 107.0 C112.6 97.2 141.3 60.7 159.0 60.0 C176.7 59.3 232.2 90.0 255.0 101.0 C277.8 112.0 341.3 146.9 354.0 154.0 C366.7 161.1 362.6 162.3 364.0 162.0 C365.4 161.7 371.0 156.4 366.0 151.0 C361.0 145.6 330.9 123.5 321.0 116.0Z M537.0 668.0 C549.5 674.4 645.4 686.9 663.0 690.0 C680.6 693.1 687.3 699.8 688.0 695.0 C688.7 690.2 675.4 660.5 669.0 649.0 C662.6 637.5 639.5 604.8 633.0 596.0 C626.5 587.2 618.6 576.7 613.0 574.0 C607.4 571.3 591.4 573.1 585.0 573.0 C578.6 572.9 557.9 571.2 558.0 573.0 C558.1 574.8 586.2 580.8 586.0 588.0 C585.8 595.2 561.7 625.7 556.0 635.0Z M412.0 146.0 C421.9 149.7 585.3 145.3 597.0 141.0 C608.7 136.7 533.6 108.4 512.0 109.0Z" transform="translate(1084, 890) scale(1, -1)" />
  </g>
  <g fill="#0499DC">
    <path d="M469.2 556.2 C449.9 553.1 343.6 579.0 307.2 575.4 C270.8 571.8 190.2 552.6 157.2 525.0 C124.2 497.4 37.6 387.9 24.0 339.0 C10.4 290.1 24.3 147.5 40.8 106.2 C57.3 64.9 126.0 -0.0 165.6 -15.0 C205.2 -30.0 341.6 -28.5 380.4 -22.2 C419.2 -15.9 479.9 40.1 498.0 39.0 C516.1 37.9 512.2 -25.5 535.2 -31.8 C558.2 -38.1 682.9 -51.4 694.8 -15.0 C706.7 21.4 645.3 221.0 637.2 280.2 C629.1 339.4 625.8 459.1 625.2 492.6 C624.6 526.1 650.2 554.3 632.4 567.0 C614.6 579.7 491.8 603.1 472.8 601.8Z M268.8 395.4 C287.7 406.5 331.6 409.6 354.0 407.4 C376.4 405.2 447.8 398.0 460.8 376.2 C473.8 354.4 472.5 243.9 465.6 220.2 C458.7 196.5 424.8 183.3 402.0 173.4 C379.2 163.5 294.4 131.9 270.0 135.0 C245.6 138.1 202.3 179.1 193.2 199.8 C184.1 220.5 183.2 289.8 192.0 312.6Z" transform="translate(2108, 890) scale(1, -1)" />
    <path d="M62.4 575.4 C52.3 560.3 70.9 486.9 72.0 441.0 C73.1 395.1 73.7 235.6 72.0 181.8 C70.3 128.0 47.5 2.0 57.6 -19.8 C67.7 -41.6 131.5 -4.8 158.4 -5.4 C185.3 -6.0 275.1 -28.5 288.0 -24.6 C300.9 -20.7 273.3 -11.6 268.8 28.2 C264.3 68.0 250.2 250.1 249.6 316.2 C249.0 382.3 274.6 564.9 264.0 594.6 C253.4 624.3 181.9 572.8 158.4 570.6Z M91.2 685.8 C111.4 679.1 197.8 676.0 220.8 681.0 C243.8 686.0 279.6 713.3 288.0 729.0 C296.4 744.7 305.1 798.6 292.8 815.4 C280.5 832.2 212.1 871.9 182.4 873.0 C152.7 874.1 54.1 840.7 38.4 825.0 C22.7 809.3 41.8 754.8 48.0 738.6Z" transform="translate(2797, 890) scale(1, -1)" />
  </g>
  <g fill="#1a1a1a">
    <path d="M92.4 105.0 C86.2 89.9 86.2 49.2 92.4 33.0 C98.6 16.8 123.9 -27.5 145.2 -34.2 C166.5 -40.9 254.1 -32.4 274.8 -24.6 C295.5 -16.8 316.1 17.3 322.8 33.0 C329.5 48.7 340.8 91.9 332.4 109.8 C324.0 127.7 272.6 180.4 250.8 186.6 C229.0 192.8 163.7 172.1 145.2 162.6Z" transform="translate(3126, 890) scale(1, -1)" />
  </g>
  <g fill="#009F5B">
    <path d="M321.6 777.0 C311.0 787.6 239.5 759.2 216.0 753.0 C192.5 746.8 130.6 744.4 120.0 724.2 C109.4 704.0 137.1 597.0 124.8 580.2 C112.5 563.4 26.2 587.5 14.4 580.2 C2.6 572.9 22.3 535.7 24.0 517.8 C25.7 499.9 16.5 436.3 28.8 426.6 C41.1 416.9 117.8 435.0 129.6 435.0 C141.4 435.0 130.7 463.4 129.6 426.6 C128.5 389.8 113.8 168.1 120.0 119.4 C126.2 70.7 161.1 26.9 182.4 9.0 C203.7 -8.9 267.7 -32.5 302.4 -34.2 C337.1 -35.9 454.8 -12.7 480.0 -5.4 C505.2 1.9 519.5 14.2 518.4 28.2 C517.3 42.2 476.6 99.5 470.4 114.6 C464.2 129.7 477.4 155.6 465.6 157.8 C453.8 160.0 387.5 132.7 369.6 133.8 C351.7 134.9 321.0 139.4 312.0 167.4 C303.0 195.4 294.6 340.9 292.8 373.8 C291.0 406.7 293.6 440.4 296.4 449.4 C299.2 458.4 297.6 449.3 316.8 450.6 C336.0 451.9 445.7 451.2 460.8 460.2 C475.9 469.2 447.5 511.2 446.4 527.4 C445.3 543.6 461.8 592.1 451.2 599.4 C440.6 606.7 372.4 591.2 355.2 589.8 C338.0 588.4 309.2 579.0 303.6 587.4 C298.0 595.8 305.1 639.7 307.2 661.8Z" transform="translate(3550, 890) scale(1, -1)" />
    <path d="M153.6 628.2 C132.3 665.2 84.2 605.2 62.4 594.6 C40.6 584.0 -34.7 577.3 -33.6 537.0 C-32.5 496.7 46.2 316.8 72.0 249.0 C97.8 181.2 157.5 -11.9 187.2 -43.8 C216.9 -75.7 296.2 -66.6 326.4 -24.6 C356.6 17.4 416.7 317.3 446.4 316.2 C476.1 315.1 549.4 5.0 580.8 -34.2 C612.2 -73.4 685.0 -60.7 715.2 -19.8 C745.4 21.1 812.0 246.8 840.0 316.2 C868.0 385.6 954.1 541.2 955.2 575.4 C956.3 609.6 870.9 599.5 849.6 609.0 C828.3 618.5 798.0 695.1 772.8 657.0 C747.6 618.9 663.8 289.9 633.6 282.6 C603.4 275.3 541.0 562.7 513.6 594.6 C486.2 626.5 418.6 561.8 398.4 556.2 C378.2 550.6 358.7 579.1 340.8 546.6 C322.9 514.1 266.6 268.3 244.8 277.8Z" transform="translate(4047, 890) scale(1, -1)" />
  </g>
  </g>
</svg>